<?xml version="1.0" standalone="no"?>
<!DOCTYPE svg PUBLIC "-//W3C//DTD SVG 20010904//EN"
 "http://www.w3.org/TR/2001/REC-SVG-20010904/DTD/svg10.dtd">
<svg version="1.0" xmlns="http://www.w3.org/2000/svg"
 width="300.000000pt" height="300.000000pt" viewBox="0 0 300.000000 300.000000"
 preserveAspectRatio="xMidYMid meet">
<metadata>
Created by potrace 1.11, written by Peter Selinger 2001-2013
</metadata>
<g transform="translate(0.000000,300.000000) scale(0.100000,-0.100000)"
fill="#000000" stroke="none">
<path d="M0 1500 l0 -1500 1500 0 1500 0 0 1500 0 1500 -1500 0 -1500 0 0
-1500z m2780 745 c0 -4 -331 -1154 -391 -1357 l-20 -68 -54 0 c-30 0 -55 3
-55 6 0 7 383 1335 401 1392 10 31 12 32 65 32 30 0 54 -2 54 -5z m-2239 -521
l239 -135 0 -54 0 -53 -240 -136 c-132 -75 -243 -136 -245 -136 -7 0 -57 81
-53 85 2 2 98 57 213 121 116 64 211 117 212 118 2 1 -89 53 -201 115 -112 63
-209 117 -217 121 -10 7 -7 18 14 49 15 23 30 41 33 41 3 0 113 -61 245 -136z
m1568 95 c13 -22 21 -42 20 -44 -2 -2 -94 -54 -204 -115 -110 -62 -204 -116
-208 -120 -5 -4 86 -60 202 -125 116 -65 211 -120 211 -122 0 -9 -45 -83 -51
-83 -3 0 -111 60 -240 133 l-234 133 -3 59 -2 60 232 132 c128 72 238 132 244
132 6 1 21 -17 33 -40z m-669 -719 l0 -50 -255 0 -255 0 0 50 0 50 255 0 255
0 0 -50z"/>
</g>
</svg>
